<svg width="48" height="48" viewBox="0 0 48 48" fill="none" xmlns="http://www.w3.org/2000/svg">
<path d="M28.3182 16.2V15.2H27.3182V16.2H28.3182ZM37.7867 22.2193L36.9318 22.7381L36.9424 22.7556L36.9537 22.7726L37.7867 22.2193ZM35.9459 19.1859L36.8008 18.6671L36.7901 18.6496L36.7788 18.6326L35.9459 19.1859ZM41.9471 23.3293L41.1262 23.9003L41.1448 23.9271L41.1652 23.9526L41.9471 23.3293ZM37.2138 16.5253L38.0348 15.9542L38.0161 15.9274L37.9958 15.9019L37.2138 16.5253ZM31.3409 25.6C30.7886 25.6 30.3409 26.0477 30.3409 26.6C30.3409 27.1523 30.7886 27.6 31.3409 27.6V25.6ZM33.0682 27.6C33.6205 27.6 34.0682 27.1523 34.0682 26.6C34.0682 26.0477 33.6205 25.6 33.0682 25.6V27.6ZM42 32.6667V34.4H44V32.6667H42ZM6 34.4V32.6667H4V34.4H6ZM41.1364 27.4667V30.0667H43.1364V27.4667H41.1364ZM6.72727 12H27.4545V10H6.72727V12ZM27.3182 11.8667V31.8H29.3182V11.8667H27.3182ZM6.86364 31.8V11.8667H4.86364V31.8H6.86364ZM29.3182 31.8V16.2H27.3182V31.8H29.3182ZM28.3182 17.2H36.5395V15.2H28.3182V17.2ZM41.1364 23.8707V31.8H43.1364V23.8707H41.1364ZM36.3929 17.0963L41.1262 23.9003L42.768 22.7582L38.0348 15.9542L36.3929 17.0963ZM30.4048 30.8H28.3182V32.8H30.4048V30.8ZM28.3182 30.8H17.5952V32.8H28.3182V30.8ZM17.5952 32.8H30.4048V30.8H17.5952V32.8ZM31.7727 19.8H35.2273V17.8H31.7727V19.8ZM35.091 19.7047L36.9318 22.7381L38.6416 21.7005L36.8008 18.6671L35.091 19.7047ZM37.0681 22.5667H31.7727V24.5667H37.0681V22.5667ZM31.9091 22.7V19.6667H29.9091V22.7H31.9091ZM31.7727 22.5667C31.8513 22.5667 31.9091 22.6297 31.9091 22.7H29.9091C29.9091 23.7276 30.7402 24.5667 31.7727 24.5667V22.5667ZM36.9537 22.7726C36.9441 22.7581 36.9341 22.7321 36.9332 22.7018C36.9325 22.6751 36.9389 22.654 36.9472 22.6384C36.9555 22.6228 36.9699 22.605 36.9936 22.5901C37.0205 22.5732 37.0492 22.5667 37.0681 22.5667V24.5667C38.5622 24.5667 39.4403 22.9012 38.6196 21.6659L36.9537 22.7726ZM35.2273 19.8C35.1801 19.8 35.1375 19.7763 35.1129 19.7393L36.7788 18.6326C36.4338 18.1133 35.8519 17.8 35.2273 17.8V19.8ZM31.7727 17.8C30.7402 17.8 29.9091 18.639 29.9091 19.6667H31.9091C31.9091 19.737 31.8513 19.8 31.7727 19.8V17.8ZM27.4545 12C27.3759 12 27.3182 11.937 27.3182 11.8667H29.3182C29.3182 10.839 28.4871 10 27.4545 10V12ZM6.72727 10C5.69471 10 4.86364 10.839 4.86364 11.8667H6.86364C6.86364 11.937 6.80588 12 6.72727 12V10ZM43.1364 23.8707C43.1364 23.4477 42.9929 23.0369 42.729 22.7059L41.1652 23.9526C41.1463 23.9289 41.1364 23.9 41.1364 23.8707H43.1364ZM36.5395 17.2C36.4967 17.2 36.4573 17.1804 36.4319 17.1486L37.9958 15.9019C37.6426 15.4589 37.107 15.2 36.5395 15.2V17.2ZM4 34.4C4 35.4276 4.83108 36.2667 5.86364 36.2667V34.2667C5.94225 34.2667 6 34.3297 6 34.4H4ZM42 34.4C42 34.3297 42.0578 34.2667 42.1364 34.2667V36.2667C43.1689 36.2667 44 35.4276 44 34.4H42ZM44 32.6667C44 31.639 43.1689 30.8 42.1364 30.8V32.8C42.0578 32.8 42 32.737 42 32.6667H44ZM6 32.6667C6 32.737 5.94225 32.8 5.86364 32.8V30.8C4.83108 30.8 4 31.639 4 32.6667H6ZM31.3409 27.6H33.0682V25.6H31.3409V27.6ZM11.1818 33.5333C11.1818 33.0817 11.3017 32.6614 11.5103 32.2994L9.77761 31.3006C9.3984 31.9584 9.18182 32.7221 9.18182 33.5333H11.1818ZM11.5103 32.2994C11.937 31.5592 12.7308 31.0667 13.6364 31.0667V29.0667C11.9846 29.0667 10.5455 29.9684 9.77761 31.3006L11.5103 32.2994ZM13.6364 36C12.7308 36 11.937 35.5075 11.5103 34.7673L9.77761 35.7661C10.5455 37.0982 11.9846 38 13.6364 38V36ZM11.5103 34.7673C11.3017 34.4053 11.1818 33.985 11.1818 33.5333H9.18182C9.18182 34.3446 9.3984 35.1082 9.77761 35.7661L11.5103 34.7673ZM16.0909 33.5333C16.0909 33.985 15.971 34.4053 15.7624 34.7673L17.4951 35.7661C17.8743 35.1082 18.0909 34.3446 18.0909 33.5333H16.0909ZM15.7624 34.7673C15.3357 35.5075 14.5419 36 13.6364 36V38C15.2882 38 16.7272 37.0982 17.4951 35.7661L15.7624 34.7673ZM17.5952 34.2667H16.6288V36.2667H17.5952V34.2667ZM13.6364 31.0667C14.5419 31.0667 15.3357 31.5592 15.7624 32.2994L17.4951 31.3006C16.7272 29.9684 15.2882 29.0667 13.6364 29.0667V31.0667ZM15.7624 32.2994C15.971 32.6614 16.0909 33.0817 16.0909 33.5333H18.0909C18.0909 32.7221 17.8743 31.9584 17.4951 31.3006L15.7624 32.2994ZM17.5952 30.8H16.6288V32.8H17.5952V30.8ZM31.9091 33.5333C31.9091 33.0817 32.029 32.6614 32.2376 32.2994L30.5049 31.3006C30.1257 31.9584 29.9091 32.7221 29.9091 33.5333H31.9091ZM32.2376 32.2994C32.6643 31.5592 33.4581 31.0667 34.3636 31.0667V29.0667C32.7118 29.0667 31.2728 29.9684 30.5049 31.3006L32.2376 32.2994ZM30.4048 32.8H31.3712V30.8H30.4048V32.8ZM34.3636 36C33.4581 36 32.6643 35.5075 32.2376 34.7673L30.5049 35.7661C31.2728 37.0982 32.7118 38 34.3636 38V36ZM32.2376 34.7673C32.029 34.4053 31.9091 33.985 31.9091 33.5333H29.9091C29.9091 34.3446 30.1257 35.1082 30.5049 35.7661L32.2376 34.7673ZM36.8182 33.5333C36.8182 33.985 36.6983 34.4053 36.4897 34.7673L38.2224 35.7661C38.6016 35.1082 38.8182 34.3446 38.8182 33.5333H36.8182ZM36.4897 34.7673C36.063 35.5075 35.2692 36 34.3636 36V38C36.0154 38 37.4545 37.0982 38.2224 35.7661L36.4897 34.7673ZM34.3636 31.0667C35.2692 31.0667 36.063 31.5592 36.4897 32.2994L38.2224 31.3006C37.4545 29.9684 36.0154 29.0667 34.3636 29.0667V31.0667ZM36.4897 32.2994C36.6983 32.6614 36.8182 33.0817 36.8182 33.5333H38.8182C38.8182 32.7221 38.6016 31.9584 38.2224 31.3006L36.4897 32.2994ZM10.644 34.2667H5.86364V36.2667H10.644V34.2667ZM5.86364 32.8H10.644V30.8H5.86364V32.8ZM37.356 32.8H42.1364V30.8H37.356V32.8ZM42.1364 34.2667H37.356V36.2667H42.1364V34.2667ZM31.3712 34.2667H17.5952V36.2667H31.3712V34.2667Z" fill="#3D67FF"/>
</svg>
