<svg width="48" height="48" viewBox="0 0 48 48" fill="none" xmlns="http://www.w3.org/2000/svg">
<path d="M17.5 35H30.5M17.5 35C17.3247 35 17.1564 34.9699 17 34.9146C16.4174 34.7087 16 34.1531 16 33.5C16 32.8876 16.367 32.3609 16.8931 32.1278M17.5 35C17.3247 35 17.1564 35.0301 17 35.0854C16.4174 35.2913 16 35.8469 16 36.5C16 37.2738 16.586 37.9108 17.3384 37.9914M30.5 35C30.6753 35 30.8436 35.0301 31 35.0854C31.5826 35.2913 32 35.8469 32 36.5C32 37.2738 31.414 37.9108 30.6616 37.9914M30.5 35C30.6753 35 30.8436 34.9699 31 34.9146C31.5826 34.7087 32 34.1531 32 33.5C32 32.6716 31.3284 32 30.5 32H17.5C17.284 32 17.0787 32.0457 16.8931 32.1278M16.8931 32.1278C16.8199 31.2685 16.6986 30.2716 16.5 29.5C15.9868 27.5059 14.2521 25 14.2521 25C12.8348 23.0298 12 20.6124 12 18C12 11.3726 17.3726 6 24 6C30.6274 6 36 11.3726 36 18C36 20.6124 35.1652 23.0298 33.7479 25C33.7479 25 32.0132 27.5059 31.5 29.5C31.301 30.2734 31.1796 31.2732 31.1064 32.1339M17.3384 37.9914C17.3915 37.9971 17.4454 38 17.5 38H30.5C30.5546 38 30.6085 37.9971 30.6616 37.9914M17.3384 37.9914C18.1596 40.3263 20.3843 42 23 42H25C27.6157 42 29.8404 40.3263 30.6616 37.9914" stroke="#3D67FF" stroke-width="2"/>
<path d="M24.6262 23.996C24.6262 23.996 28.4708 24.7088 30.582 22.7508C32.6933 20.7929 32.2717 16.9055 32.2717 16.9055C32.2717 16.9055 28.4272 16.1927 26.3159 18.1507C24.2046 20.1087 24.6262 23.996 24.6262 23.996ZM24.6262 23.996L28.5 20.5" stroke="#3D67FF" stroke-width="2" stroke-linecap="round"/>
<path d="M23.7786 23.996C23.7786 23.996 19.934 24.7088 17.8228 22.7508C15.7115 20.7929 16.133 16.9055 16.133 16.9055C16.133 16.9055 19.9776 16.1927 22.0889 18.1507C24.2002 20.1087 23.7786 23.996 23.7786 23.996ZM23.7786 23.996L19.9048 20.5" stroke="#3D67FF" stroke-width="2" stroke-linecap="round"/>
<path d="M24 24V32" stroke="#3D67FF" stroke-width="2" stroke-linecap="round" stroke-linejoin="round"/>
<path d="M9 18H6M10.5 25.5L7.5 27.5M10.5 10.5L7.5 8.5M37.5 10.5L40.5 8.5M39 18H42M37.5 25.5L40.5 27.5" stroke="#3D67FF" stroke-width="2" stroke-linecap="round" stroke-linejoin="round"/>
</svg>
