<svg width="48" height="48" viewBox="0 0 48 48" fill="none" xmlns="http://www.w3.org/2000/svg">
<path d="M33.5894 28.8317C33.5894 28.8317 42.0717 20.1485 39.3931 19.2339C37.3208 18.5263 36.268 20.605 34.9287 21.9761C32.4631 24.5003 29.6114 24.4193 27.7857 27.4606C26.5441 29.5289 26 33.4021 26 33.4021V43H32.2501C32.2501 43 31.5767 39.5434 32.2501 37.5155C33.0843 35.0033 36.7144 32.4881 36.7144 32.4881C36.7144 32.4881 41.35 29.3265 42.5181 23.3473C43.8574 16.4916 42.1248 10.7696 40.7324 11.0072C38.0538 11.4642 38.5002 18.9034 38.5002 18.9034" stroke="#3D67FF" stroke-width="2" stroke-linecap="round" stroke-linejoin="round"/>
<path d="M14.4106 28.8317C14.4106 28.8317 5.92833 20.1485 8.60694 19.2339C10.6792 18.5263 11.732 20.605 13.0713 21.9761C15.5369 24.5003 18.3886 24.4193 20.2143 27.4606C21.4559 29.5289 22 33.4021 22 33.4021V43H15.7499C15.7499 43 16.4233 39.5434 15.7499 37.5155C14.9157 35.0033 11.2856 32.4881 11.2856 32.4881C11.2856 32.4881 6.65 29.3265 5.4819 23.3473C4.14259 16.4916 5.87518 10.7696 7.26764 11.0072C9.94625 11.4642 9.49981 18.9034 9.49981 18.9034" stroke="#3D67FF" stroke-width="2" stroke-linecap="round" stroke-linejoin="round"/>
<path d="M17 17.9793C17 17.9793 25.658 20.5226 29.6512 17.58C33.5196 14.7292 34 6 34 6C34 6 31.6279 7.99654 28.8605 8.79516C25.9438 9.63683 22.8904 9.75374 21.3488 10.7917C17.7907 13.1876 17 17.9793 17 17.9793ZM17 17.9793C17 17.9793 20.5084 15.8068 22.9302 14.7848C25.3183 13.7771 28.4651 12.7883 28.4651 12.7883" stroke="#3D67FF" stroke-width="2" stroke-linecap="round" stroke-linejoin="round"/>
</svg>
