<svg width="48" height="48" viewBox="0 0 48 48" fill="none" xmlns="http://www.w3.org/2000/svg">
<path d="M22.694 7.12594C23.4445 6.47895 24.5555 6.47895 25.306 7.12594L27.5812 9.08752C27.9512 9.40658 28.4253 9.57913 28.9139 9.57259L31.9177 9.5324C32.9084 9.51915 33.7595 10.2333 33.9185 11.2113L34.4005 14.1764C34.4789 14.6587 34.7312 15.0956 35.1096 15.4047L37.4365 17.3047C38.204 17.9314 38.3969 19.0255 37.8901 19.8769L36.3534 22.4582C36.1034 22.878 36.0158 23.3748 36.1071 23.8549L36.6683 26.806C36.8534 27.7794 36.2978 28.7416 35.3623 29.068L32.5259 30.0576C32.0646 30.2186 31.6781 30.5429 31.4395 30.9692L29.9724 33.5907C29.4885 34.4553 28.4445 34.8353 27.518 34.484L24.7091 33.4189C24.2522 33.2457 23.7478 33.2457 23.2909 33.4189L20.482 34.484C19.5555 34.8353 18.5115 34.4553 18.0276 33.5907L16.5605 30.9692C16.3219 30.5429 15.9354 30.2186 15.4741 30.0576L12.6377 29.068C11.7022 28.7416 11.1466 27.7794 11.3317 26.806L11.8929 23.8549C11.9842 23.3748 11.8966 22.878 11.6466 22.4582L10.1099 19.8769C9.60309 19.0255 9.79602 17.9314 10.5635 17.3047L12.8904 15.4047C13.2688 15.0956 13.5211 14.6587 13.5995 14.1764L14.0815 11.2113C14.2405 10.2333 15.0916 9.51915 16.0823 9.5324L19.0861 9.57259C19.5747 9.57913 20.0488 9.40658 20.4188 9.08752L22.694 7.12594Z" stroke="#3D67FF" stroke-width="2"/>
<circle cx="24" cy="21" r="6" stroke="#3D67FF" stroke-width="2"/>
<path d="M26 34L29.5 43L32.5 38.5L38 40.5L34 30" stroke="#3D67FF" stroke-width="2" stroke-linecap="round" stroke-linejoin="round"/>
<path d="M22 34L18.5 43L15.5 38.5L10 40.5L14 30" stroke="#3D67FF" stroke-width="2" stroke-linecap="round" stroke-linejoin="round"/>
</svg>
